<?xml version="1.0" standalone="no"?>
<!DOCTYPE svg PUBLIC "-//W3C//DTD SVG 20010904//EN"
 "http://www.w3.org/TR/2001/REC-SVG-20010904/DTD/svg10.dtd">
<svg version="1.0" xmlns="http://www.w3.org/2000/svg"
 width="574.000000pt" height="574.000000pt" viewBox="0 0 574.000000 574.000000"
 preserveAspectRatio="xMidYMid meet">
<metadata>
Created by potrace 1.14, written by Peter Selinger 2001-2017
</metadata>
<g transform="translate(0.000000,574.000000) scale(0.100000,-0.100000)"
fill="#000000" stroke="none">
<path d="M2324 4339 l-49 -49 173 -173 172 -172 -172 -172 -172 -173 44 -45
c24 -25 48 -45 53 -45 9 0 437 425 437 434 0 3 -98 105 -219 225 l-218 219
-49 -49z"/>
<path d="M2859 3540 c-1 -8 -2 -42 -3 -76 l-1 -61 303 0 c166 0 302 3 303 6 0
3 1 37 2 76 l1 70 -302 0 c-262 0 -302 -2 -303 -15z"/>
<path d="M3257 2810 c-102 -7 -107 -13 -107 -142 0 -147 -28 -137 374 -138
182 0 347 -3 366 -6 88 -14 137 -128 93 -219 -11 -24 -31 -42 -62 -58 -45 -21
-55 -22 -390 -23 -403 -2 -379 5 -381 -109 -2 -114 -1 -124 20 -145 19 -19 33
-20 371 -20 392 0 421 -3 479 -59 59 -56 65 -157 11 -205 -45 -41 -82 -44
-459 -46 -199 0 -373 -5 -386 -10 -32 -12 -36 -27 -36 -141 0 -141 -31 -131
403 -131 408 1 458 6 574 63 163 80 236 203 227 381 -5 109 -48 198 -130 272
l-44 39 35 38 c19 22 35 45 35 52 0 8 7 28 16 45 18 38 26 169 13 236 -28 147
-152 266 -323 310 -45 11 -123 15 -334 16 -151 0 -278 2 -281 3 -3 1 -41 0
-84 -3z"/>
<path d="M2150 2788 c-17 -19 -20 -35 -20 -119 0 -93 1 -99 25 -118 14 -11 40
-23 58 -26 98 -21 182 -87 237 -185 38 -68 47 -72 165 -69 94 3 121 13 133 48
17 51 -65 206 -159 300 -87 87 -169 134 -299 172 -84 25 -115 24 -140 -3z"/>
<path d="M1870 2789 c-148 -41 -313 -171 -383 -304 -74 -139 -98 -237 -100
-395 -2 -230 57 -397 193 -544 44 -47 139 -120 190 -144 48 -23 143 -52 171
-52 51 0 69 39 69 145 0 78 -3 96 -21 119 -11 14 -26 26 -32 26 -31 0 -118 52
-160 95 -51 51 -102 147 -114 210 -16 89 -6 291 16 320 5 6 11 22 15 37 3 15
12 33 19 40 7 7 23 28 36 46 31 44 103 97 159 118 73 27 82 43 82 155 0 82 -3
98 -20 117 -23 24 -60 27 -120 11z"/>
<path d="M2490 1867 c-9 -7 -28 -34 -44 -61 -55 -95 -120 -144 -239 -180 -32
-10 -62 -26 -67 -36 -6 -10 -10 -61 -10 -113 0 -110 13 -132 80 -130 110 2
274 85 380 192 82 83 160 216 160 273 0 55 -28 68 -144 68 -64 -1 -107 -5
-116 -13z"/>
</g>
</svg>
